<?xml version="1.0" standalone="no"?>
<!DOCTYPE svg PUBLIC "-//W3C//DTD SVG 20010904//EN"
 "http://www.w3.org/TR/2001/REC-SVG-20010904/DTD/svg10.dtd">
<svg version="1.0" xmlns="http://www.w3.org/2000/svg"
 width="553.000000pt" height="553.000000pt" viewBox="0 0 553.000000 553.000000"
 preserveAspectRatio="xMidYMid meet">
<metadata>
Created by potrace 1.14, written by Peter Selinger 2001-2017
</metadata>
<g transform="translate(0.000000,553.000000) scale(0.100000,-0.100000)"
fill="#000000" stroke="none">
<path d="M1150 4906 c0 -50 124 -342 250 -591 161 -319 385 -680 607 -981 l82
-111 253 249 253 249 -70 66 c-38 36 -102 95 -140 132 -119 112 -319 294 -404
367 -18 16 -46 40 -61 54 -15 14 -51 45 -81 70 -29 25 -69 59 -89 76 -33 29
-200 162 -265 211 -113 86 -182 132 -297 202 -31 18 -38 20 -38 7z"/>
<path d="M4220 4867 c-107 -66 -246 -167 -375 -271 -96 -77 -365 -304 -375
-317 -3 -3 -27 -25 -55 -49 -72 -62 -299 -272 -520 -480 -226 -214 -1376
-1372 -1399 -1408 -4 -8 35 -54 107 -127 l115 -114 261 -88 262 -87 87 90
c160 165 338 357 440 473 32 35 62 69 67 75 81 86 374 446 507 621 439 582
765 1148 943 1640 19 52 31 95 27 95 -4 0 -45 -24 -92 -53z"/>
<path d="M3329 2863 c-30 -38 -56 -70 -59 -73 -3 -3 -34 -41 -70 -85 -35 -44
-67 -82 -70 -85 -3 -3 -45 -52 -95 -110 -49 -58 -105 -122 -125 -143 -62 -69
-87 -29 203 -331 l105 -110 262 88 263 87 114 114 c62 63 113 116 113 119 0 5
-24 30 -338 354 -130 133 -239 242 -243 242 -4 0 -31 -30 -60 -67z"/>
<path d="M1326 2167 c-16 -18 -44 -49 -64 -69 l-35 -37 101 -101 100 -100 56
72 c31 39 56 74 56 77 0 4 -42 48 -92 98 l-93 92 -29 -32z"/>
<path d="M4010 2105 c-67 -68 -90 -96 -84 -107 23 -38 97 -128 105 -128 5 0
52 43 105 95 l97 95 -54 58 c-30 31 -59 62 -65 69 -8 8 -34 -12 -104 -82z"/>
<path d="M972 1793 c-66 -71 -133 -141 -148 -158 -15 -16 -78 -84 -139 -150
-124 -132 -131 -139 -260 -280 -149 -163 -197 -215 -258 -279 -52 -55 -57 -64
-52 -96 3 -19 7 -53 10 -75 6 -46 23 -166 31 -212 5 -34 -1 -32 169 -49 28 -2
61 -6 75 -9 14 -2 59 -7 100 -10 41 -4 79 -8 84 -8 5 -1 19 48 32 108 68 322
177 560 331 721 107 114 156 168 261 293 l104 124 -103 104 c-57 56 -106 103
-110 103 -3 0 -60 -57 -127 -127z m-484 -982 l53 -54 -66 -65 -66 -66 -66 67
-67 66 64 65 c73 73 63 74 148 -13z"/>
<path d="M4252 1816 l-103 -104 85 -101 c98 -119 178 -209 271 -306 114 -120
194 -257 260 -445 38 -112 79 -266 90 -343 7 -44 15 -53 47 -48 4 0 29 3 55 6
71 7 154 16 188 20 17 2 57 7 90 10 33 4 61 8 62 9 1 1 5 20 8 42 4 21 8 50
10 64 2 14 6 45 10 70 3 25 8 56 10 70 18 97 17 102 -38 160 -45 48 -172 187
-271 294 -15 17 -74 80 -130 140 -55 60 -109 118 -119 129 -18 21 -236 254
-346 370 -35 37 -67 67 -71 67 -3 0 -52 -47 -108 -104z m865 -1123 l-68 -67
-65 66 -66 65 67 68 67 68 66 -67 66 -66 -67 -67z"/>
</g>
</svg>
